<svg width="346" height="463" viewBox="0 0 346 463" fill="none" xmlns="http://www.w3.org/2000/svg">
<path d="M140.75 10.454L152.096 7.61723C164.22 4.58574 176.904 4.58574 189.029 7.61723L201.54 10.7454C212.865 13.5772 222.851 20.2652 229.781 29.6602L230.235 30.2756C236.311 38.5127 239.589 48.4791 239.589 58.7145C239.589 70.4604 235.274 81.797 227.464 90.5701L222.015 96.69C220.054 98.893 217.806 100.822 215.33 102.425L203.896 109.826C201.671 111.266 200.328 113.736 200.328 116.386C200.328 120.234 203.129 123.509 206.931 124.105L227.423 127.322C235.254 128.551 242.353 132.638 247.349 138.794L335.674 247.629C340.25 253.267 341.7 260.822 339.536 267.754C336.14 278.631 324.904 285.024 313.819 282.387L305.525 280.413C300.367 279.186 295.743 276.327 292.34 272.262L256.61 229.576C253.968 226.42 248.826 228.288 248.826 232.404V428.297C248.826 438.497 243.531 447.965 234.841 453.304L234.455 453.541C225.05 459.32 213.161 459.177 203.897 453.175C195.751 447.897 190.834 438.852 190.834 429.146V344.819C190.834 336.406 185.568 328.894 177.66 326.025L177.307 325.897C172.96 324.319 168.188 324.382 163.884 326.072C156.613 328.927 151.83 335.942 151.83 343.754V428.297C151.83 438.497 146.535 447.965 137.845 453.304L137.459 453.541C128.054 459.32 116.165 459.177 106.901 453.175C98.755 447.897 93.8377 438.852 93.8377 429.146V232.404C93.8377 228.586 88.9526 226.998 86.7077 230.086L56.1627 272.106C53.1583 276.239 48.7393 279.124 43.7465 280.211L32.0117 282.766C20.8427 285.197 9.67842 278.644 6.35649 267.707C4.25554 260.79 5.69777 253.282 10.212 247.635L97.1756 138.858C102.127 132.665 109.214 128.546 117.046 127.308L137.479 124.08C141.163 123.498 143.875 120.323 143.875 116.594C143.875 113.842 142.384 111.307 139.979 109.97L127.894 103.251C124.051 101.114 120.705 98.1868 118.077 94.6619L115.312 90.9527C108.533 81.8611 104.872 70.8239 104.872 59.4835V56.4081C104.872 47.6144 107.32 38.9943 111.941 31.513C118.432 21.0062 128.769 13.4497 140.75 10.454Z" stroke="black" stroke-width="10"/>
</svg>
